<svg xmlns="http://www.w3.org/2000/svg" xmlns:xlink="http://www.w3.org/1999/xlink" width="500" zoomAndPan="magnify" viewBox="0 0 375 374.999991" height="500" preserveAspectRatio="xMidYMid meet" version="1.0"><defs><g/><clipPath id="8b0af2872c"><path d="M 0 175.144531 L 375 175.144531 L 375 199.855469 L 0 199.855469 Z M 0 175.144531 " clip-rule="nonzero"/></clipPath></defs><g fill="#000000" fill-opacity="1"><g transform="translate(100.160154, 225.107827)"><g><path d="M 40.8125 -44.21875 C 48.945312 -41.207031 53.015625 -34.425781 53.015625 -23.875 C 53.015625 -18.519531 52.410156 -14.375 51.203125 -11.4375 C 49.992188 -8.507812 48.253906 -6.203125 45.984375 -4.515625 C 41.796875 -1.503906 35.269531 0 26.40625 0 L 8.25 0 L 8.25 -77 L 24.75 -77 C 36.332031 -77 43.664062 -74.066406 46.75 -68.203125 C 47.851562 -66.148438 48.40625 -63.65625 48.40625 -60.71875 C 48.40625 -57.78125 47.648438 -54.769531 46.140625 -51.6875 C 44.640625 -48.613281 42.863281 -46.125 40.8125 -44.21875 Z M 15.734375 -39.9375 L 15.734375 -6.046875 L 25.84375 -6.046875 C 32.664062 -6.046875 37.472656 -6.960938 40.265625 -8.796875 C 43.785156 -11.066406 45.546875 -15.578125 45.546875 -22.328125 C 45.546875 -31.492188 42.316406 -37.03125 35.859375 -38.9375 C 33.734375 -39.601562 31.3125 -39.9375 28.59375 -39.9375 Z M 35.53125 -45.546875 C 39.125 -50.234375 40.921875 -54.847656 40.921875 -59.390625 C 40.921875 -63.941406 39.488281 -67.003906 36.625 -68.578125 C 33.769531 -70.160156 29.628906 -70.953125 24.203125 -70.953125 L 15.734375 -70.953125 L 15.734375 -45.984375 L 29.15625 -45.984375 C 31.351562 -45.984375 33.476562 -45.835938 35.53125 -45.546875 Z M 35.53125 -45.546875 "/></g></g></g><g fill="#000000" fill-opacity="1"><g transform="translate(158.126043, 225.107827)"><g><path d="M 51.265625 -75.015625 L 49.9375 -68.75 C 44.289062 -70 39.488281 -70.625 35.53125 -70.625 C 21.300781 -70.625 14.1875 -66.296875 14.1875 -57.640625 C 14.1875 -54.335938 15.226562 -51.804688 17.3125 -50.046875 C 19.40625 -48.285156 22.046875 -46.835938 25.234375 -45.703125 C 28.429688 -44.566406 31.863281 -43.539062 35.53125 -42.625 C 39.195312 -41.707031 42.609375 -40.476562 45.765625 -38.9375 C 53.171875 -35.269531 56.875 -29.660156 56.875 -22.109375 C 56.875 -14.554688 54.050781 -8.835938 48.40625 -4.953125 C 43.5625 -1.578125 37.179688 0.109375 29.265625 0.109375 C 19.429688 0.109375 11.144531 -2.125 4.40625 -6.59375 L 7.265625 -12.203125 C 9.242188 -10.816406 12.066406 -9.515625 15.734375 -8.296875 C 19.398438 -7.085938 22.957031 -6.484375 26.40625 -6.484375 C 33.144531 -6.484375 38.457031 -7.585938 42.34375 -9.796875 C 47.039062 -12.503906 49.390625 -16.390625 49.390625 -21.453125 C 49.390625 -25.191406 48.34375 -28.101562 46.25 -30.1875 C 44.164062 -32.28125 41.523438 -33.96875 38.328125 -35.25 C 35.140625 -36.539062 31.710938 -37.644531 28.046875 -38.5625 C 24.378906 -39.476562 20.96875 -40.628906 17.8125 -42.015625 C 10.40625 -45.242188 6.703125 -50.046875 6.703125 -56.421875 C 6.703125 -62.804688 8.898438 -67.867188 13.296875 -71.609375 C 17.703125 -75.347656 23.941406 -77.21875 32.015625 -77.21875 C 38.242188 -77.21875 44.660156 -76.484375 51.265625 -75.015625 Z M 51.265625 -75.015625 "/></g></g></g><g fill="#000000" fill-opacity="1"><g transform="translate(219.391699, 225.107827)"><g><path d="M 48.296875 -70.40625 L 16.28125 -70.40625 L 16.28125 -41.46875 L 45.984375 -41.46875 L 45.4375 -34.875 L 16.28125 -34.875 L 16.28125 -6.59375 L 51.046875 -6.59375 L 50.484375 0 L 8.796875 0 L 8.796875 -77 L 48.84375 -77 Z M 48.296875 -70.40625 "/></g></g></g><g clip-path="url(#8b0af2872c)"><path fill="#ffffff" d="M 0 175.144531 L 375.011719 175.144531 L 375.011719 199.855469 L 0 199.855469 Z M 0 175.144531 " fill-opacity="1" fill-rule="nonzero"/></g><g fill="#304945" fill-opacity="1"><g transform="translate(84.673445, 191.27555)"><g><path d="M 4.140625 -7.78125 C 4.566406 -7.78125 4.9375 -7.679688 5.25 -7.484375 C 5.5625 -7.285156 5.800781 -7.03125 5.96875 -6.71875 C 6.132812 -6.414062 6.21875 -6.09375 6.21875 -5.75 C 6.21875 -5.46875 6.15625 -5.191406 6.03125 -4.921875 C 5.914062 -4.660156 5.722656 -4.429688 5.453125 -4.234375 C 5.890625 -4.046875 6.195312 -3.769531 6.375 -3.40625 C 6.5625 -3.050781 6.65625 -2.691406 6.65625 -2.328125 C 6.65625 -1.941406 6.570312 -1.570312 6.40625 -1.21875 C 6.238281 -0.863281 5.988281 -0.570312 5.65625 -0.34375 C 5.320312 -0.113281 4.910156 0 4.421875 0 L 0.953125 0 L 0.953125 -7.78125 Z M 4.125 -4.625 C 4.4375 -4.625 4.671875 -4.738281 4.828125 -4.96875 C 4.992188 -5.195312 5.078125 -5.441406 5.078125 -5.703125 C 5.078125 -5.960938 5 -6.195312 4.84375 -6.40625 C 4.695312 -6.613281 4.460938 -6.71875 4.140625 -6.71875 L 2.046875 -6.71875 L 2.046875 -4.625 Z M 4.421875 -1.078125 C 4.671875 -1.078125 4.878906 -1.132812 5.046875 -1.25 C 5.210938 -1.375 5.335938 -1.53125 5.421875 -1.71875 C 5.503906 -1.914062 5.546875 -2.113281 5.546875 -2.3125 C 5.546875 -2.519531 5.503906 -2.710938 5.421875 -2.890625 C 5.335938 -3.078125 5.210938 -3.226562 5.046875 -3.34375 C 4.878906 -3.46875 4.671875 -3.53125 4.421875 -3.53125 L 2.046875 -3.53125 L 2.046875 -1.078125 Z M 4.421875 -1.078125 "/></g></g></g><g fill="#304945" fill-opacity="1"><g transform="translate(100.530475, 191.27555)"><g><path d="M 0.390625 -3.84375 C 0.390625 -4.40625 0.488281 -4.925781 0.6875 -5.40625 C 0.894531 -5.894531 1.179688 -6.320312 1.546875 -6.6875 C 1.910156 -7.050781 2.332031 -7.335938 2.8125 -7.546875 C 3.300781 -7.753906 3.820312 -7.859375 4.375 -7.859375 C 4.9375 -7.859375 5.457031 -7.753906 5.9375 -7.546875 C 6.425781 -7.335938 6.851562 -7.050781 7.21875 -6.6875 C 7.582031 -6.320312 7.863281 -5.894531 8.0625 -5.40625 C 8.269531 -4.925781 8.375 -4.40625 8.375 -3.84375 C 8.375 -3.289062 8.269531 -2.773438 8.0625 -2.296875 C 7.863281 -1.816406 7.582031 -1.390625 7.21875 -1.015625 C 6.851562 -0.648438 6.425781 -0.363281 5.9375 -0.15625 C 5.457031 0.0390625 4.9375 0.140625 4.375 0.140625 C 3.820312 0.140625 3.300781 0.0390625 2.8125 -0.15625 C 2.332031 -0.363281 1.910156 -0.648438 1.546875 -1.015625 C 1.179688 -1.390625 0.894531 -1.816406 0.6875 -2.296875 C 0.488281 -2.773438 0.390625 -3.289062 0.390625 -3.84375 Z M 1.53125 -3.84375 C 1.53125 -3.320312 1.65625 -2.84375 1.90625 -2.40625 C 2.164062 -1.976562 2.507812 -1.632812 2.9375 -1.375 C 3.375 -1.125 3.851562 -1 4.375 -1 C 4.90625 -1 5.382812 -1.125 5.8125 -1.375 C 6.25 -1.632812 6.59375 -1.976562 6.84375 -2.40625 C 7.101562 -2.84375 7.234375 -3.320312 7.234375 -3.84375 C 7.234375 -4.375 7.101562 -4.851562 6.84375 -5.28125 C 6.59375 -5.71875 6.25 -6.0625 5.8125 -6.3125 C 5.382812 -6.570312 4.90625 -6.703125 4.375 -6.703125 C 3.851562 -6.703125 3.375 -6.570312 2.9375 -6.3125 C 2.507812 -6.0625 2.164062 -5.71875 1.90625 -5.28125 C 1.65625 -4.851562 1.53125 -4.375 1.53125 -3.84375 Z M 1.53125 -3.84375 "/></g></g></g><g fill="#304945" fill-opacity="1"><g transform="translate(118.168251, 191.27555)"><g><path d="M 3.703125 -7.765625 C 4.335938 -7.765625 4.890625 -7.648438 5.359375 -7.421875 C 5.835938 -7.203125 6.234375 -6.90625 6.546875 -6.53125 C 6.859375 -6.15625 7.09375 -5.734375 7.25 -5.265625 C 7.40625 -4.796875 7.484375 -4.320312 7.484375 -3.84375 C 7.484375 -3.351562 7.40625 -2.878906 7.25 -2.421875 C 7.09375 -1.972656 6.859375 -1.566406 6.546875 -1.203125 C 6.234375 -0.835938 5.835938 -0.546875 5.359375 -0.328125 C 4.890625 -0.109375 4.335938 0 3.703125 0 L 0.953125 0 L 0.953125 -7.765625 Z M 3.703125 -1.109375 C 4.296875 -1.109375 4.789062 -1.238281 5.1875 -1.5 C 5.59375 -1.769531 5.894531 -2.113281 6.09375 -2.53125 C 6.289062 -2.945312 6.390625 -3.382812 6.390625 -3.84375 C 6.390625 -4.1875 6.332031 -4.519531 6.21875 -4.84375 C 6.101562 -5.175781 5.929688 -5.476562 5.703125 -5.75 C 5.484375 -6.03125 5.207031 -6.25 4.875 -6.40625 C 4.539062 -6.570312 4.148438 -6.65625 3.703125 -6.65625 L 2.0625 -6.65625 L 2.0625 -1.109375 Z M 3.703125 -1.109375 "/></g></g></g><g fill="#304945" fill-opacity="1"><g transform="translate(134.937638, 191.27555)"><g><path d="M 1.90625 -1.953125 L 1.15625 0 L -0.046875 0 L 3.046875 -7.796875 L 3.859375 -7.796875 L 6.953125 0 L 5.765625 0 L 5.03125 -1.953125 Z M 4.625 -2.984375 L 3.46875 -6.03125 L 2.3125 -2.984375 Z M 4.625 -2.984375 "/></g></g></g><g fill="#304945" fill-opacity="1"><g transform="translate(150.706731, 191.27555)"><g/></g></g><g fill="#304945" fill-opacity="1"><g transform="translate(162.243811, 191.27555)"><g><path d="M 4.796875 -5.703125 C 4.742188 -5.929688 4.632812 -6.117188 4.46875 -6.265625 C 4.3125 -6.410156 4.125 -6.515625 3.90625 -6.578125 C 3.695312 -6.648438 3.476562 -6.6875 3.25 -6.6875 C 2.988281 -6.6875 2.722656 -6.640625 2.453125 -6.546875 C 2.191406 -6.453125 1.984375 -6.304688 1.828125 -6.109375 C 1.765625 -6.023438 1.71875 -5.929688 1.6875 -5.828125 C 1.65625 -5.722656 1.640625 -5.613281 1.640625 -5.5 C 1.640625 -5.207031 1.722656 -4.988281 1.890625 -4.84375 C 2.066406 -4.695312 2.285156 -4.597656 2.546875 -4.546875 C 2.816406 -4.492188 3.097656 -4.453125 3.390625 -4.421875 C 3.648438 -4.390625 3.921875 -4.34375 4.203125 -4.28125 C 4.484375 -4.21875 4.75 -4.128906 5 -4.015625 C 5.25 -3.898438 5.46875 -3.742188 5.65625 -3.546875 C 5.84375 -3.347656 5.972656 -3.09375 6.046875 -2.78125 C 6.085938 -2.601562 6.109375 -2.4375 6.109375 -2.28125 C 6.109375 -1.90625 6.023438 -1.570312 5.859375 -1.28125 C 5.691406 -0.988281 5.46875 -0.738281 5.1875 -0.53125 C 4.914062 -0.332031 4.609375 -0.179688 4.265625 -0.078125 C 3.929688 0.015625 3.59375 0.0625 3.25 0.0625 C 2.957031 0.0625 2.65625 0.0195312 2.34375 -0.0625 C 2.03125 -0.15625 1.738281 -0.285156 1.46875 -0.453125 C 1.195312 -0.628906 0.972656 -0.847656 0.796875 -1.109375 C 0.617188 -1.367188 0.507812 -1.671875 0.46875 -2.015625 L 0.46875 -2.21875 L 1.578125 -2.25 L 1.59375 -2.078125 L 1.59375 -2.125 C 1.625 -1.882812 1.722656 -1.679688 1.890625 -1.515625 C 2.066406 -1.359375 2.28125 -1.238281 2.53125 -1.15625 C 2.78125 -1.070312 3.019531 -1.03125 3.25 -1.03125 C 3.53125 -1.03125 3.800781 -1.078125 4.0625 -1.171875 C 4.332031 -1.273438 4.550781 -1.421875 4.71875 -1.609375 C 4.894531 -1.796875 4.984375 -2.019531 4.984375 -2.28125 C 4.984375 -2.363281 4.972656 -2.453125 4.953125 -2.546875 C 4.910156 -2.742188 4.800781 -2.890625 4.625 -2.984375 C 4.445312 -3.085938 4.238281 -3.160156 4 -3.203125 C 3.757812 -3.253906 3.507812 -3.289062 3.25 -3.3125 C 2.957031 -3.34375 2.65625 -3.390625 2.34375 -3.453125 C 2.03125 -3.515625 1.742188 -3.613281 1.484375 -3.75 C 1.222656 -3.882812 1.003906 -4.078125 0.828125 -4.328125 C 0.660156 -4.578125 0.5625 -4.898438 0.53125 -5.296875 C 0.53125 -5.328125 0.523438 -5.359375 0.515625 -5.390625 C 0.515625 -5.421875 0.515625 -5.453125 0.515625 -5.484375 C 0.515625 -5.953125 0.660156 -6.375 0.953125 -6.75 C 1.203125 -7.09375 1.539062 -7.347656 1.96875 -7.515625 C 2.394531 -7.691406 2.832031 -7.78125 3.28125 -7.78125 C 3.675781 -7.78125 4.0625 -7.707031 4.4375 -7.5625 C 4.8125 -7.414062 5.128906 -7.191406 5.390625 -6.890625 C 5.660156 -6.597656 5.828125 -6.21875 5.890625 -5.75 Z M 4.796875 -5.703125 "/></g></g></g><g fill="#304945" fill-opacity="1"><g transform="translate(177.584209, 191.27555)"><g><path d="M 1.90625 -1.953125 L 1.15625 0 L -0.046875 0 L 3.046875 -7.796875 L 3.859375 -7.796875 L 6.953125 0 L 5.765625 0 L 5.03125 -1.953125 Z M 4.625 -2.984375 L 3.46875 -6.03125 L 2.3125 -2.984375 Z M 4.625 -2.984375 "/></g></g></g><g fill="#304945" fill-opacity="1"><g transform="translate(193.353308, 191.27555)"><g><path d="M 3.484375 -6.75 L 3.484375 -1.03125 L 4.921875 -1.03125 L 4.921875 0 L 0.953125 0 L 0.953125 -1.03125 L 2.375 -1.03125 L 2.375 -6.75 L 0.953125 -6.75 L 0.953125 -7.765625 L 4.921875 -7.765625 L 4.921875 -6.75 Z M 3.484375 -6.75 "/></g></g></g><g fill="#304945" fill-opacity="1"><g transform="translate(219.538281, 191.27555)"><g><path d="M 5.640625 -1.109375 L 5.640625 0 L 0.953125 0 L 0.953125 -7.78125 L 5.625 -7.78125 L 5.625 -6.671875 L 2.0625 -6.671875 L 2.0625 -4.5 L 5.5625 -4.5 L 5.5625 -3.375 L 2.0625 -3.375 L 2.0625 -1.109375 Z M 5.640625 -1.109375 "/></g></g></g><g fill="#304945" fill-opacity="1"><g transform="translate(234.471974, 191.27555)"><g><path d="M 4.796875 -5.703125 C 4.742188 -5.929688 4.632812 -6.117188 4.46875 -6.265625 C 4.3125 -6.410156 4.125 -6.515625 3.90625 -6.578125 C 3.695312 -6.648438 3.476562 -6.6875 3.25 -6.6875 C 2.988281 -6.6875 2.722656 -6.640625 2.453125 -6.546875 C 2.191406 -6.453125 1.984375 -6.304688 1.828125 -6.109375 C 1.765625 -6.023438 1.71875 -5.929688 1.6875 -5.828125 C 1.65625 -5.722656 1.640625 -5.613281 1.640625 -5.5 C 1.640625 -5.207031 1.722656 -4.988281 1.890625 -4.84375 C 2.066406 -4.695312 2.285156 -4.597656 2.546875 -4.546875 C 2.816406 -4.492188 3.097656 -4.453125 3.390625 -4.421875 C 3.648438 -4.390625 3.921875 -4.34375 4.203125 -4.28125 C 4.484375 -4.21875 4.75 -4.128906 5 -4.015625 C 5.25 -3.898438 5.46875 -3.742188 5.65625 -3.546875 C 5.84375 -3.347656 5.972656 -3.09375 6.046875 -2.78125 C 6.085938 -2.601562 6.109375 -2.4375 6.109375 -2.28125 C 6.109375 -1.90625 6.023438 -1.570312 5.859375 -1.28125 C 5.691406 -0.988281 5.46875 -0.738281 5.1875 -0.53125 C 4.914062 -0.332031 4.609375 -0.179688 4.265625 -0.078125 C 3.929688 0.015625 3.59375 0.0625 3.25 0.0625 C 2.957031 0.0625 2.65625 0.0195312 2.34375 -0.0625 C 2.03125 -0.15625 1.738281 -0.285156 1.46875 -0.453125 C 1.195312 -0.628906 0.972656 -0.847656 0.796875 -1.109375 C 0.617188 -1.367188 0.507812 -1.671875 0.46875 -2.015625 L 0.46875 -2.21875 L 1.578125 -2.25 L 1.59375 -2.078125 L 1.59375 -2.125 C 1.625 -1.882812 1.722656 -1.679688 1.890625 -1.515625 C 2.066406 -1.359375 2.28125 -1.238281 2.53125 -1.15625 C 2.78125 -1.070312 3.019531 -1.03125 3.25 -1.03125 C 3.53125 -1.03125 3.800781 -1.078125 4.0625 -1.171875 C 4.332031 -1.273438 4.550781 -1.421875 4.71875 -1.609375 C 4.894531 -1.796875 4.984375 -2.019531 4.984375 -2.28125 C 4.984375 -2.363281 4.972656 -2.453125 4.953125 -2.546875 C 4.910156 -2.742188 4.800781 -2.890625 4.625 -2.984375 C 4.445312 -3.085938 4.238281 -3.160156 4 -3.203125 C 3.757812 -3.253906 3.507812 -3.289062 3.25 -3.3125 C 2.957031 -3.34375 2.65625 -3.390625 2.34375 -3.453125 C 2.03125 -3.515625 1.742188 -3.613281 1.484375 -3.75 C 1.222656 -3.882812 1.003906 -4.078125 0.828125 -4.328125 C 0.660156 -4.578125 0.5625 -4.898438 0.53125 -5.296875 C 0.53125 -5.328125 0.523438 -5.359375 0.515625 -5.390625 C 0.515625 -5.421875 0.515625 -5.453125 0.515625 -5.484375 C 0.515625 -5.953125 0.660156 -6.375 0.953125 -6.75 C 1.203125 -7.09375 1.539062 -7.347656 1.96875 -7.515625 C 2.394531 -7.691406 2.832031 -7.78125 3.28125 -7.78125 C 3.675781 -7.78125 4.0625 -7.707031 4.4375 -7.5625 C 4.8125 -7.414062 5.128906 -7.191406 5.390625 -6.890625 C 5.660156 -6.597656 5.828125 -6.21875 5.890625 -5.75 Z M 4.796875 -5.703125 "/></g></g></g><g fill="#304945" fill-opacity="1"><g transform="translate(249.812365, 191.27555)"><g><path d="M 4.71875 -3.65625 C 4.5 -3.039062 4.269531 -2.414062 4.03125 -1.78125 C 3.800781 -1.15625 3.585938 -0.546875 3.390625 0.046875 L 2.609375 0.046875 L -0.015625 -7.78125 L 1.140625 -7.78125 L 3.015625 -2.140625 L 4.28125 -5.734375 L 5.171875 -5.734375 L 6.421875 -2.140625 C 6.722656 -3.054688 7.035156 -4.003906 7.359375 -4.984375 C 7.691406 -5.972656 8 -6.90625 8.28125 -7.78125 L 9.453125 -7.78125 L 6.859375 0.046875 L 6.078125 0.046875 Z M 4.71875 -3.65625 "/></g></g></g><g fill="#304945" fill-opacity="1"><g transform="translate(267.99975, 191.27555)"><g><path d="M 1.90625 -1.953125 L 1.15625 0 L -0.046875 0 L 3.046875 -7.796875 L 3.859375 -7.796875 L 6.953125 0 L 5.765625 0 L 5.03125 -1.953125 Z M 4.625 -2.984375 L 3.46875 -6.03125 L 2.3125 -2.984375 Z M 4.625 -2.984375 "/></g></g></g><g fill="#304945" fill-opacity="1"><g transform="translate(283.768837, 191.27555)"><g><path d="M 3.75 -3.90625 C 4.0625 -3.90625 4.320312 -3.96875 4.53125 -4.09375 C 4.738281 -4.226562 4.890625 -4.398438 4.984375 -4.609375 C 5.085938 -4.816406 5.140625 -5.03125 5.140625 -5.25 C 5.140625 -5.46875 5.085938 -5.6875 4.984375 -5.90625 C 4.890625 -6.125 4.738281 -6.304688 4.53125 -6.453125 C 4.320312 -6.597656 4.0625 -6.671875 3.75 -6.671875 L 2.046875 -6.671875 L 2.046875 0 L 0.953125 0 L 0.953125 -7.796875 L 3.75 -7.796875 C 4.164062 -7.796875 4.53125 -7.71875 4.84375 -7.5625 C 5.164062 -7.414062 5.429688 -7.21875 5.640625 -6.96875 C 5.847656 -6.726562 6.003906 -6.457031 6.109375 -6.15625 C 6.210938 -5.851562 6.265625 -5.550781 6.265625 -5.25 C 6.265625 -4.882812 6.1875 -4.535156 6.03125 -4.203125 C 5.882812 -3.867188 5.660156 -3.585938 5.359375 -3.359375 C 5.066406 -3.128906 4.703125 -2.972656 4.265625 -2.890625 L 6.703125 0 L 5.265625 0 L 2.453125 -3.375 L 2.453125 -3.90625 Z M 3.75 -3.90625 "/></g></g></g></svg>